             Prometheus 2012 iNTERNAL DVDRip x264-RAWNiTRO

General Info:
Release name       : Prometheus.2012.internal.dvdrip.x264-rawnitro.mp4
Format             : MPEG-4
File size          : 421 MiB
Duration           : 1h 58mn
Overall bit rate   : 496 Kbps

Video:

Format             : AVC
Codec ID           : avc1
Duration           : 1h 58mn
Bit rate           : 357 Kbps
Maximum bit rate   : 5 908 Kbps
Width              : 640 pixels
Height             : 256 pixels
Aspect ratio       : 2.500
Chroma subsampling : 4:2:0
Bit depth          : 8 bits
Stream size        : 303 MiB (72%)

Audio:

Format             : AAC
Codec ID           : 40
Duration           : 1h 58mn
Bit rate mode      : Variable
Bit rate           : 132.3 Kbps
Maximum bit rate   : 199 Kbps
Channel(s)         : 2 channels
Sampling rate      : 48.0 KHz
Compression mode   : Lossy
Stream size        : 114 MiB (27%)

iMDB Info:

 
http://www.imdb.com/title/tt1446714/


Ratings: 7.5/10 from 134,025 users   

A team of explorers discover a clue to the origins of mankind on Earth, leading them on a 
journey to the darkest corners of the universe. There, they must fight a terrifying battle 
to save the future of the human race.

Director : Ridley Scott
Writers  : Jon Spaihts, Damon Lindelof
Stars    : Noomi Rapace, Logan Marshall-Green and Michael Fassbender

Screen:
 
http://postimg.com/84000/photo-83278.jpg
 
http://postimg.com/84000/photo-83277.jpg
 
http://postimg.com/84000/photo-83279.jpg
 
http://postimg.com/84000/photo-83282.jpg